<svg width="257" height="43" viewBox="0 0 257 43" fill="none" xmlns="http://www.w3.org/2000/svg">
<path d="M16 32.1875C16 31.0208 16.3958 30.0417 17.1875 29.25C18.0208 28.4167 19.0208 28 20.1875 28H29.75L28.125 23.375C27.4583 21.6667 26.7917 20.0625 26.125 18.5625C25.5 17.0208 24.7708 15.625 23.9375 14.375C23.1875 13.125 22.3333 12.4583 21.375 12.375C20.375 12.4583 19.4792 13.125 18.6875 14.375C17.8958 15.625 17.1667 17.0208 16.5 18.5625C15.875 20.0625 15.2292 21.6667 14.5625 23.375L8.625 39.625C8.20833 40.5 7.66667 41.2292 7 41.8125C6.375 42.3542 5.41667 42.625 4.125 42.625C2.91667 42.625 1.91667 42.2083 1.125 41.375C0.375 40.5417 0.0416667 39.5417 0.125 38.375C0.166667 37.8333 0.291667 37.3333 0.5 36.875L7.375 19.125C9.29167 14.4583 11.2083 10.6875 13.125 7.8125C15 4.97917 17.75 3.54167 21.375 3.5C24.9583 3.54167 27.6875 4.97917 29.5625 7.8125C31.4792 10.6042 33.3958 14.375 35.3125 19.125L42.1875 36.875C42.3958 37.3333 42.5208 37.8333 42.5625 38.375C42.6458 39.5417 42.2917 40.5417 41.5 41.375C40.75 42.2083 39.7708 42.625 38.5625 42.625C37.1875 42.625 36.1667 42.3542 35.5 41.8125C34.875 41.2292 34.3542 40.5 33.9375 39.625L32.75 36.375H20.1875C19.0208 36.375 18.0417 35.9583 17.25 35.125C16.4167 34.3333 16 33.3542 16 32.1875ZM83.625 8.0625C83.875 5.5625 85.25 4.20833 87.75 4C88.9167 4 89.9167 4.39583 90.75 5.1875C91.625 5.9375 92.0625 6.89583 92.0625 8.0625V37.8125C92.0208 38.9792 91.5833 39.9583 90.75 40.75C89.9167 41.5 88.9167 41.875 87.75 41.875H61.5C57.8333 41.75 55.0625 40.8958 53.1875 39.3125C51.3125 37.6875 49.9583 35.875 49.125 33.875C48.2917 31.8333 47.875 29.7708 47.875 27.6875C47.875 25.5208 48.2708 23.4375 49.0625 21.4375C49.8958 19.3958 51.25 17.5833 53.125 16C55.0417 14.375 57.4583 13.5417 60.375 13.5H76.125C77.2917 13.5 78.2708 13.9167 79.0625 14.75C79.8958 15.5417 80.3125 16.5208 80.3125 17.6875C80.3125 18.8542 79.8958 19.8542 79.0625 20.6875C78.2708 21.4792 77.2917 21.875 76.125 21.875H60.125C59.3333 21.875 58.6458 22.2083 58.0625 22.875C57.4792 23.5 57.0417 24.25 56.75 25.125C56.5 25.9583 56.375 26.7917 56.375 27.625C56.375 28.5 56.5 29.375 56.75 30.25C57.0417 31.0833 57.4792 31.8333 58.0625 32.5C58.6458 33.125 59.3333 33.4583 60.125 33.5H82C83.0833 33.4583 83.625 32.9167 83.625 31.875V8.0625ZM113.25 41.875C109.583 41.75 106.812 40.8958 104.938 39.3125C103.062 37.6875 101.708 35.875 100.875 33.875C100.042 31.8333 99.625 29.7708 99.625 27.6875C99.625 25.5208 100.021 23.4375 100.812 21.4375C101.646 19.3958 103 17.5833 104.875 16C106.792 14.375 109.208 13.5417 112.125 13.5H132.375C135.292 13.5417 137.688 14.375 139.562 16C141.479 17.5833 142.833 19.3958 143.625 21.4375C144.458 23.4375 144.875 25.5208 144.875 27.6875C144.875 29.7708 144.458 31.8333 143.625 33.875C142.792 35.875 141.438 37.6875 139.562 39.3125C137.688 40.8958 134.917 41.75 131.25 41.875H113.25ZM111.875 21.875C111.083 21.875 110.396 22.2083 109.812 22.875C109.229 23.5 108.792 24.25 108.5 25.125C108.25 25.9583 108.125 26.7917 108.125 27.625C108.125 28.5 108.25 29.375 108.5 30.25C108.792 31.0833 109.229 31.8333 109.812 32.5C110.396 33.125 111.083 33.4583 111.875 33.5H132.625C133.417 33.4583 134.104 33.125 134.688 32.5C135.271 31.8333 135.688 31.0833 135.938 30.25C136.229 29.375 136.375 28.5 136.375 27.625C136.375 26.7917 136.229 25.9583 135.938 25.125C135.688 24.25 135.271 23.5 134.688 22.875C134.104 22.2083 133.417 21.875 132.625 21.875H111.875ZM172 12.5625C174.167 12.5625 176.292 12.8125 178.375 13.3125C180.5 13.8125 182.521 14.5625 184.438 15.5625C186.354 16.5208 188.042 17.8125 189.5 19.4375C191 21.0625 191.812 23 191.938 25.25V27.875V38.5625C191.688 41.0625 190.312 42.4167 187.812 42.625C186.646 42.625 185.625 42.25 184.75 41.5C183.917 40.7083 183.5 39.7292 183.5 38.5625V35.8125V27.1875C183.417 25.8958 182.917 24.8333 182 24C181.125 23.125 180.125 22.4375 179 21.9375C177.917 21.4375 176.771 21.0625 175.562 20.8125C174.396 20.5625 173.208 20.4375 172 20.4375C170.792 20.4375 169.583 20.5625 168.375 20.8125C167.208 21.0625 166.062 21.4375 164.938 21.9375C163.854 22.4375 162.854 23.125 161.938 24C161.062 24.8333 160.583 25.8958 160.5 27.1875V35.8125V38.5625C160.292 41.0625 158.938 42.4167 156.438 42.625C155.271 42.625 154.25 42.25 153.375 41.5C152.542 40.7083 152.125 39.7292 152.125 38.5625V27.875V25.25C152.25 23 153.042 21.0625 154.5 19.4375C155.958 17.8125 157.646 16.5208 159.562 15.5625C161.479 14.5625 163.479 13.8125 165.562 13.3125C167.688 12.8125 169.833 12.5625 172 12.5625ZM204.188 12.875C205.312 12.9167 206.271 13.3333 207.062 14.125C207.854 14.875 208.271 15.8125 208.312 16.9375V38.5625C208.062 41.0625 206.688 42.4167 204.188 42.625C203.021 42.625 202 42.25 201.125 41.5C200.292 40.7083 199.875 39.7292 199.875 38.5625V16.9375C199.917 15.7708 200.354 14.8125 201.188 14.0625C202.021 13.2708 203.021 12.875 204.188 12.875ZM198.938 4.75C198.938 3.58333 199.438 2.58333 200.438 1.75C201.438 0.916667 202.646 0.5 204.062 0.5C205.479 0.5 206.688 0.916667 207.688 1.75C208.688 2.58333 209.188 3.58333 209.188 4.75C209.188 5.95833 208.688 6.97917 207.688 7.8125C206.688 8.64583 205.479 9.0625 204.062 9.0625C202.646 9.0625 201.438 8.64583 200.438 7.8125C199.438 6.97917 198.938 5.95833 198.938 4.75ZM255.625 17.125C255.625 18.1667 255.208 19.0417 254.375 19.75C253.583 20.4167 252.604 20.75 251.438 20.75H225C224.458 20.75 224.021 20.8542 223.688 21.0625C223.354 21.2708 223.104 21.5 222.938 21.75C222.771 21.9583 222.688 22.1458 222.688 22.3125C222.688 22.5208 222.771 22.75 222.938 23C223.104 23.2083 223.354 23.4167 223.688 23.625C224.021 23.7917 224.458 23.8958 225 23.9375H245.438C248.062 23.9792 250.229 24.5 251.938 25.5C253.646 26.4583 254.854 27.6042 255.562 28.9375C256.312 30.2292 256.688 31.5417 256.688 32.875C256.688 34.1667 256.312 35.4792 255.562 36.8125C254.812 38.1042 253.583 39.25 251.875 40.25C250.208 41.2083 248.062 41.6875 245.438 41.6875C244.979 41.7292 244.646 41.75 244.438 41.75H220.188C219.021 41.75 218.021 41.4167 217.188 40.75C216.396 40.0417 216 39.1875 216 38.1875C216 37.1458 216.417 36.2708 217.25 35.5625C218.042 34.8958 219.021 34.5625 220.188 34.5625H245.938C246.562 34.6042 247.062 34.5208 247.438 34.3125C247.854 34.1042 248.167 33.875 248.375 33.625C248.583 33.375 248.688 33.125 248.688 32.875C248.688 32.75 248.583 32.5417 248.375 32.25C248.167 31.9167 247.854 31.6667 247.438 31.5C247.062 31.2917 246.562 31.1667 245.938 31.125H225.438C223.021 31.0833 221.021 30.5833 219.438 29.625C217.854 28.625 216.729 27.4792 216.062 26.1875C215.396 24.8958 215.062 23.6042 215.062 22.3125C215.062 21.0208 215.396 19.75 216.062 18.5C216.771 17.2083 217.896 16.1042 219.438 15.1875C221.021 14.2292 223.021 13.7083 225.438 13.625C225.854 13.5833 226.167 13.5625 226.375 13.5625H251.438C252.604 13.5625 253.583 13.9167 254.375 14.625C255.208 15.2917 255.625 16.125 255.625 17.125Z" fill="black" style="mix-blend-mode:plus-darker"/>
</svg>
